<svg width="14" height="19" viewBox="0 0 14 19" fill="none" xmlns="http://www.w3.org/2000/svg">
<path d="M3.20344 12.4928C3.26193 12.4928 3.31985 12.5032 3.37389 12.5233C3.42793 12.5435 3.47704 12.573 3.5184 12.6102C3.55976 12.6474 3.59257 12.6916 3.61495 12.7403C3.63734 12.7889 3.64886 12.841 3.64886 12.8937C3.64886 13.694 4.00211 14.4615 4.6309 15.0275C5.2597 15.5934 6.11252 15.9113 7.00177 15.9113C7.1199 15.9113 7.2332 15.9535 7.31673 16.0287C7.40027 16.1039 7.44719 16.2059 7.44719 16.3122C7.44719 16.4185 7.40027 16.5205 7.31673 16.5956C7.2332 16.6708 7.1199 16.7131 7.00177 16.7131C5.87665 16.7119 4.79799 16.3091 4.00241 15.5931C3.20683 14.8771 2.75931 13.9063 2.75801 12.8937C2.75801 12.841 2.76953 12.7889 2.79192 12.7403C2.8143 12.6916 2.84711 12.6474 2.88847 12.6102C2.92984 12.573 2.97894 12.5435 3.03298 12.5233C3.08702 12.5032 3.14494 12.4928 3.20344 12.4928Z" fill="#757675"/>
<path d="M7.00177 18.6426C8.67861 18.6402 10.2859 18.0391 11.4707 16.9711C12.6555 15.9032 13.3209 14.4557 13.3209 12.9465C13.3209 9.67782 9.18973 3.64698 7.41293 1.20205L7.00177 0.642578L6.59061 1.20205C5.20539 3.10073 0.677734 9.57209 0.677734 12.9465C0.679029 14.4561 1.34557 15.9036 2.53113 16.9714C3.7167 18.0392 5.32448 18.6402 7.00177 18.6426ZM7.00177 2.25491C8.66109 4.60734 12.342 10.0963 12.342 12.9465C12.3636 13.5902 12.2414 14.2313 11.9827 14.8317C11.7239 15.4321 11.3339 15.9796 10.8356 16.4418C10.3374 16.904 9.74108 17.2715 9.0821 17.5224C8.42312 17.7734 7.71486 17.9027 6.99932 17.9027C6.28378 17.9027 5.57553 17.7734 4.91655 17.5224C4.25756 17.2715 3.66127 16.904 3.16302 16.4418C2.66478 15.9796 2.27471 15.4321 2.01596 14.8317C1.75721 14.2313 1.63504 13.5902 1.65669 12.9465C1.65669 10.5765 4.34391 5.97738 7.00177 2.25491Z" fill="#757675"/>
<path d="M1.0595 11.8064L7.07888 1.11011L12.9533 11.8064C12.9533 11.8064 13.2923 18.3382 7.07818 18.3382C0.795865 18.3382 1.0595 11.8064 1.0595 11.8064Z" fill="#757675"/>
</svg>
