<svg width="13" height="18" viewBox="0 0 13 18" fill="none" xmlns="http://www.w3.org/2000/svg">
<path d="M2.5257 11.8502C2.58419 11.8502 2.64212 11.8606 2.69616 11.8807C2.7502 11.9009 2.7993 11.9304 2.84066 11.9676C2.88202 12.0049 2.91483 12.0491 2.93722 12.0977C2.9596 12.1463 2.97112 12.1985 2.97112 12.2511C2.97112 13.0514 3.32438 13.819 3.95317 14.3849C4.58196 14.9508 5.43479 15.2687 6.32404 15.2687C6.44217 15.2687 6.55546 15.311 6.639 15.3861C6.72253 15.4613 6.76946 15.5633 6.76946 15.6696C6.76946 15.7759 6.72253 15.8779 6.639 15.9531C6.55546 16.0282 6.44217 16.0705 6.32404 16.0705C5.19892 16.0693 4.12025 15.6665 3.32468 14.9505C2.5291 14.2345 2.08157 13.2637 2.08028 12.2511C2.08028 12.1985 2.0918 12.1463 2.11418 12.0977C2.13657 12.0491 2.16938 12.0049 2.21074 11.9676C2.2521 11.9304 2.3012 11.9009 2.35524 11.8807C2.40929 11.8606 2.46721 11.8502 2.5257 11.8502Z" fill="white"/>
<path d="M6.32404 18C8.00087 17.9977 9.60815 17.3965 10.7929 16.3286C11.9777 15.2606 12.6432 13.8131 12.6432 12.304C12.6432 9.03524 8.51199 3.00441 6.7352 0.559471L6.32404 0L5.91287 0.559471C4.52766 2.45815 0 8.92952 0 12.304C0.00129421 13.8135 0.667835 15.261 1.8534 16.3288C3.03897 17.3967 4.64675 17.9977 6.32404 18ZM6.32404 1.61233C7.98336 3.96476 11.6642 9.45374 11.6642 12.304C11.6859 12.9477 11.5637 13.5887 11.3049 14.1891C11.0462 14.7895 10.6561 15.337 10.1579 15.7993C9.65964 16.2615 9.06334 16.6289 8.40436 16.8799C7.74538 17.1308 7.03713 17.2601 6.32159 17.2601C5.60605 17.2601 4.89779 17.1308 4.23881 16.8799C3.57983 16.6289 2.98354 16.2615 2.48529 15.7993C1.98704 15.337 1.59698 14.7895 1.33823 14.1891C1.07947 13.5887 0.957302 12.9477 0.978953 12.304C0.978953 9.93392 3.66618 5.3348 6.32404 1.61233Z" fill="white"/>
<path d="M0.381763 11.1638L6.40115 0.467529L12.2755 11.1638C12.2755 11.1638 12.6145 17.6956 6.40044 17.6956C0.11813 17.6956 0.381763 11.1638 0.381763 11.1638Z" fill="white"/>
</svg>
