<?xml version="1.0" standalone="no"?>
<!DOCTYPE svg PUBLIC "-//W3C//DTD SVG 20010904//EN"
 "http://www.w3.org/TR/2001/REC-SVG-20010904/DTD/svg10.dtd">
<svg version="1.0" xmlns="http://www.w3.org/2000/svg"
 width="517.000000pt" height="517.000000pt" viewBox="0 0 517.000000 517.000000"
 preserveAspectRatio="xMidYMid meet">
<metadata>
Created by potrace 1.14, written by Peter Selinger 2001-2017
</metadata>
<g transform="translate(0.000000,517.000000) scale(0.100000,-0.100000)"
fill="#000000" stroke="none">
<path d="M2543 5112 c-26 -38 -126 -177 -257 -357 -89 -122 -398 -588 -531
-800 -230 -367 -363 -600 -530 -930 -107 -211 -258 -542 -270 -590 -1 -5 -8
-23 -14 -40 -37 -88 -120 -370 -138 -465 -41 -227 -38 -458 9 -635 5 -22 11
-47 13 -55 13 -70 120 -309 180 -405 115 -183 325 -394 515 -517 127 -82 364
-198 405 -198 7 0 16 -4 19 -9 3 -5 18 -11 33 -14 16 -3 62 -15 103 -26 153
-43 331 -65 515 -65 130 0 270 14 365 35 25 5 54 11 65 13 114 22 296 86 432
154 190 94 327 193 478 346 119 120 131 135 198 234 240 358 317 769 223 1199
-32 147 -122 412 -211 622 -81 191 -314 661 -373 751 -9 14 -25 41 -35 60 -51
95 -305 518 -391 650 -246 378 -459 688 -734 1066 -9 13 -21 23 -27 24 -5 0
-25 -22 -42 -48z"/>
</g>
</svg>
