<?xml version="1.0" standalone="no"?>
<!DOCTYPE svg PUBLIC "-//W3C//DTD SVG 20010904//EN"
 "http://www.w3.org/TR/2001/REC-SVG-20010904/DTD/svg10.dtd">
<svg version="1.0" xmlns="http://www.w3.org/2000/svg"
 width="1216.000000pt" height="1216.000000pt" viewBox="0 0 1216.000000 1216.000000"
 preserveAspectRatio="xMidYMid meet">
<metadata>
Created by potrace 1.14, written by Peter Selinger 2001-2017
</metadata>
<g transform="translate(0.000000,1216.000000) scale(0.100000,-0.100000)"
fill="#000000" stroke="none">
<path d="M6029 11678 c-24 -34 -49 -69 -57 -78 -7 -8 -54 -71 -103 -140 -50
-69 -95 -126 -100 -128 -5 -2 -9 -10 -9 -18 0 -8 -4 -14 -10 -14 -5 0 -10 -7
-10 -15 0 -8 -4 -15 -10 -15 -5 0 -10 -7 -10 -15 0 -7 -6 -18 -12 -22 -7 -4
-17 -16 -23 -25 -16 -27 -162 -232 -178 -249 -8 -9 -23 -30 -33 -48 -10 -17
-22 -31 -26 -31 -4 0 -8 -7 -8 -15 0 -9 -7 -18 -15 -21 -8 -4 -15 -12 -15 -19
0 -6 -11 -25 -25 -41 -14 -16 -28 -37 -31 -46 -3 -10 -10 -18 -15 -18 -5 0 -9
-5 -9 -12 0 -6 -8 -21 -18 -32 -11 -12 -49 -66 -87 -121 -37 -55 -72 -101 -76
-103 -5 -2 -9 -8 -9 -14 0 -6 -15 -31 -33 -57 -70 -96 -167 -243 -167 -252 0
-5 -3 -9 -8 -9 -4 0 -16 -16 -26 -35 -11 -19 -23 -35 -28 -35 -4 0 -8 -4 -8
-10 0 -12 -88 -142 -102 -151 -5 -3 -9 -9 -8 -13 2 -7 -117 -194 -130 -206 -3
-3 -27 -39 -53 -80 -26 -41 -52 -82 -57 -90 -40 -58 -100 -153 -100 -156 0 -8
-44 -69 -52 -72 -5 -2 -8 -8 -8 -14 0 -5 -13 -29 -30 -53 -16 -24 -30 -48 -30
-54 0 -6 -4 -11 -8 -11 -5 0 -14 -10 -20 -22 -6 -13 -22 -40 -34 -60 -13 -20
-43 -69 -68 -110 -24 -40 -47 -75 -50 -78 -4 -3 -10 -12 -13 -20 -4 -8 -16
-28 -27 -45 -19 -29 -32 -51 -87 -145 -14 -25 -29 -47 -32 -50 -3 -3 -17 -25
-30 -50 -14 -25 -32 -56 -42 -70 -23 -34 -141 -233 -158 -267 -8 -16 -19 -31
-25 -35 -6 -4 -7 -8 -2 -8 5 0 2 -8 -6 -17 -8 -10 -28 -43 -44 -73 -16 -30
-35 -61 -41 -68 -7 -7 -13 -20 -13 -28 0 -8 -7 -17 -15 -20 -8 -4 -15 -14 -15
-23 0 -9 -4 -21 -9 -26 -5 -6 -19 -28 -31 -50 -12 -22 -64 -115 -116 -207 -52
-92 -94 -172 -94 -178 0 -5 -5 -10 -12 -10 -6 0 -8 -3 -5 -7 4 -3 2 -12 -4
-19 -5 -7 -23 -36 -38 -66 -15 -29 -54 -102 -86 -163 -32 -60 -86 -164 -119
-230 -34 -66 -66 -127 -71 -135 -5 -8 -10 -17 -11 -20 -6 -27 -28 -70 -35 -70
-5 0 -9 -6 -9 -13 0 -8 -25 -64 -55 -125 -30 -61 -55 -116 -55 -122 0 -5 -4
-10 -10 -10 -5 0 -9 -3 -8 -7 1 -5 -9 -30 -22 -58 -13 -27 -24 -52 -25 -55 -5
-13 -26 -62 -58 -131 -19 -41 -64 -145 -100 -230 -36 -85 -73 -172 -83 -194
-9 -22 -18 -42 -18 -45 -2 -6 -50 -133 -67 -175 -7 -16 -13 -32 -14 -35 -1 -3
-4 -12 -8 -20 -3 -8 -17 -49 -32 -90 -15 -41 -29 -82 -32 -90 -4 -8 -7 -18 -8
-22 -2 -5 -4 -10 -5 -13 -1 -3 -4 -9 -5 -15 -1 -5 -4 -12 -5 -15 -1 -3 -3 -8
-4 -12 -3 -12 -27 -86 -33 -103 -7 -17 -6 -13 -23 -70 -17 -56 -12 -38 -60
-205 -22 -77 -43 -153 -46 -170 -9 -46 -12 -60 -14 -60 -2 0 -7 -31 -12 -72
-1 -7 -4 -13 -8 -13 -3 0 -6 -8 -6 -17 -1 -10 -4 -31 -7 -48 -4 -16 -9 -47
-12 -69 -4 -21 -9 -48 -11 -60 -8 -35 -21 -126 -29 -201 -3 -27 -8 -72 -11
-100 -13 -114 -6 -492 12 -615 2 -14 5 -41 8 -60 5 -45 18 -120 32 -187 3 -16
7 -37 9 -48 1 -11 8 -40 15 -65 7 -25 14 -54 16 -65 11 -70 106 -356 150 -453
13 -29 24 -55 24 -58 0 -29 261 -511 289 -534 3 -3 12 -17 19 -31 8 -14 25
-39 38 -55 14 -15 35 -44 46 -64 12 -19 24 -37 28 -40 3 -3 32 -39 65 -80 164
-206 403 -446 580 -583 6 -4 24 -19 40 -33 17 -14 50 -39 75 -56 25 -18 47
-35 50 -38 3 -4 34 -26 70 -50 36 -24 67 -47 68 -52 2 -4 8 -8 14 -8 5 0 29
-14 53 -30 24 -17 48 -30 53 -30 6 0 12 -4 14 -8 4 -9 146 -92 158 -92 5 0 10
-3 12 -7 8 -20 470 -233 504 -233 8 0 14 -5 14 -10 0 -6 3 -9 8 -8 6 3 108
-31 157 -52 11 -4 54 -18 95 -30 41 -12 86 -25 100 -30 41 -14 294 -75 355
-85 11 -2 20 -4 20 -5 0 -1 9 -3 20 -4 11 -2 38 -6 60 -10 122 -20 225 -35
290 -41 22 -3 72 -7 110 -11 84 -9 633 -9 725 -1 149 14 168 16 211 22 24 4
55 9 69 11 43 5 115 17 185 31 17 3 37 6 45 7 9 1 21 5 28 10 6 4 12 5 12 3 0
-4 81 12 140 27 8 2 44 11 80 20 36 9 76 21 90 26 14 5 59 18 100 30 41 12 84
25 95 30 11 4 67 25 125 46 58 21 137 52 175 69 78 35 77 35 105 42 11 3 20
10 20 16 0 6 3 8 6 4 9 -8 305 145 376 194 14 11 29 19 33 19 9 0 231 147 249
165 8 8 18 15 21 15 4 0 20 10 35 22 15 13 43 34 61 48 175 132 396 337 529
490 30 34 62 70 71 79 40 41 269 352 269 366 0 3 9 15 20 27 10 12 17 24 15
28 -3 5 2 11 11 14 8 3 12 10 9 16 -3 5 -1 10 4 10 6 0 11 4 11 9 0 5 16 35
36 67 45 76 196 383 195 399 0 2 9 26 20 52 20 46 66 172 74 203 2 8 17 60 34
115 25 88 59 235 76 330 2 17 7 41 10 54 2 14 7 47 10 75 3 28 8 64 11 80 13
79 25 520 15 541 -3 6 -6 30 -8 55 -2 47 -10 125 -13 125 0 0 -3 21 -5 46 -4
42 -8 68 -19 124 -2 11 -7 40 -11 65 -4 25 -10 56 -13 70 -3 14 -6 35 -6 48
-1 12 -5 22 -10 22 -5 0 -7 3 -4 6 3 3 2 21 -4 41 -5 19 -11 43 -13 52 -2 9
-11 45 -20 81 -9 36 -19 73 -21 83 -6 26 -12 46 -35 122 -11 39 -22 77 -23 85
-1 9 -4 20 -8 25 -3 6 -13 37 -23 70 -9 33 -21 69 -26 80 -5 11 -11 29 -14 40
-6 26 -82 243 -90 255 -3 6 -8 18 -10 27 -2 10 -13 41 -24 68 -11 28 -34 86
-52 130 -17 44 -38 96 -46 115 -53 124 -66 155 -68 163 -2 4 -4 10 -5 15 -1 4
-2 10 -1 15 0 4 -3 7 -7 7 -4 0 -14 17 -21 38 -8 20 -32 75 -54 122 -22 47
-45 99 -52 115 -42 105 -474 974 -495 995 -3 3 -21 37 -40 75 -19 39 -37 72
-40 75 -3 3 -12 19 -21 35 -51 94 -86 157 -119 215 -40 70 -65 114 -144 255
-27 50 -52 92 -55 95 -3 3 -17 25 -30 50 -13 25 -30 52 -37 61 -8 8 -14 19
-14 23 0 8 -81 144 -111 187 -10 14 -16 29 -12 33 3 3 2 6 -4 6 -5 0 -18 18
-28 40 -10 22 -22 40 -27 40 -4 0 -8 4 -8 9 0 9 -58 109 -70 121 -10 10 -41
65 -47 83 -3 9 -9 17 -14 17 -5 0 -9 5 -9 10 0 6 -18 38 -40 71 -22 33 -40 63
-40 66 0 2 -13 23 -28 46 -15 23 -32 49 -37 58 -6 9 -19 29 -29 45 -64 95
-106 165 -106 174 0 5 -3 10 -8 10 -4 0 -18 20 -32 45 -14 25 -28 45 -32 45
-5 0 -8 5 -8 10 0 6 -27 51 -60 100 -33 49 -60 94 -60 100 0 5 -4 10 -10 10
-5 0 -10 3 -10 8 0 7 -218 342 -239 368 -5 6 -21 30 -36 55 -16 24 -31 46 -35
49 -4 3 -13 16 -20 30 -7 14 -48 75 -92 137 -43 62 -78 117 -78 123 0 5 -3 10
-8 10 -4 0 -18 18 -32 40 -14 22 -28 40 -33 40 -4 0 -6 4 -2 9 3 6 0 13 -7 18
-7 4 -19 20 -26 34 -12 23 -30 46 -72 97 -6 6 -8 12 -5 12 4 0 -43 66 -81 113
-8 9 -14 20 -14 23 0 5 -41 66 -51 74 -3 3 -21 28 -39 55 -19 28 -40 56 -47
63 -7 7 -13 18 -13 23 0 5 -8 17 -17 27 -10 10 -36 45 -59 77 -47 68 -199 282
-217 305 -7 8 -55 74 -107 145 -52 72 -98 135 -103 140 -4 6 -21 29 -38 53
-17 23 -34 42 -38 42 -5 0 -28 -28 -52 -62z"/>
</g>
</svg>
